<svg xmlns="http://www.w3.org/2000/svg" viewBox="0 0 334.6 250.63"><defs><style>.cls-1,.cls-2{stroke:#000;stroke-miterlimit:10;}.cls-1{stroke-width:0.25px;}.cls-2{fill:none;stroke-width:8px;}</style></defs><title>robustthickest</title><g id="Layer_2" data-name="Layer 2"><path class="cls-1" d="M334.48,70.1a68.94,68.94,0,0,1-5.81,27.82,67.64,67.64,0,0,1-60.79,37.34,68.7,68.7,0,0,1-18.72-2.58l-28.9-27.6h44a35,35,0,1,0,0-70H37L.31.13h264a70.07,70.07,0,0,1,70.18,70Z"/><path class="cls-2" d="M316.83,246.63h-49.7a70.51,70.51,0,0,1-6.18-5.26L119.66,106.48H170c.67.63,1.38,1.25,2.08,1.93Z"/></g></svg>